<svg width="40" height="40" viewBox="0 0 40 40" fill="none" xmlns="http://www.w3.org/2000/svg">
<g clip-path="url(#clip0)">
<path d="M39.9609 11.7601C39.8672 9.63475 39.5235 8.17359 39.0312 6.90748C38.5232 5.56353 37.7418 4.36029 36.7181 3.36003C35.7178 2.34421 34.5067 1.55487 33.1783 1.05489C31.9048 0.562549 30.4513 0.218854 28.3259 0.125146C26.1847 0.0235031 25.505 0 20.0742 0C14.6435 0 13.9637 0.0235031 11.8304 0.11721C9.70506 0.210918 8.2439 0.554918 6.97809 1.04696C5.63384 1.55487 4.4306 2.33627 3.43034 3.36003C2.41452 4.36029 1.62549 5.57146 1.12521 6.89985C0.632861 8.17359 0.289166 9.62682 0.195459 11.7522C0.0938156 13.8934 0.0703125 14.5732 0.0703125 20.0039C0.0703125 25.4347 0.0938156 26.1144 0.187523 28.2477C0.28123 30.3731 0.62523 31.8342 1.11757 33.1003C1.62549 34.4443 2.41452 35.6475 3.43034 36.6478C4.4306 37.6636 5.64177 38.4529 6.97016 38.9529C8.2439 39.4453 9.69713 39.789 11.8228 39.8827C13.9558 39.9767 14.6358 39.9999 20.0666 39.9999C25.4973 39.9999 26.1771 39.9767 28.3104 39.8827C30.4357 39.789 31.8969 39.4453 33.1627 38.9529C35.8509 37.9136 37.9763 35.7882 39.0156 33.1003C39.5076 31.8266 39.8516 30.3731 39.9453 28.2477C40.039 26.1144 40.0625 25.4347 40.0625 20.0039C40.0625 14.5732 40.0546 13.8934 39.9609 11.7601ZM36.3588 28.0914C36.2727 30.0449 35.9446 31.0998 35.6711 31.8031C34.999 33.5457 33.616 34.9287 31.8734 35.6008C31.1701 35.8743 30.1076 36.2024 28.1617 36.2882C26.0519 36.3822 25.4192 36.4054 20.0821 36.4054C14.7451 36.4054 14.1044 36.3822 12.0023 36.2882C10.0488 36.2024 8.99387 35.8743 8.2906 35.6008C7.42343 35.2803 6.63409 34.7724 5.9934 34.1082C5.32921 33.4596 4.8213 32.6782 4.5008 31.811C4.22731 31.1078 3.89918 30.0449 3.81341 28.0994C3.7194 25.9896 3.6962 25.3565 3.6962 20.0195C3.6962 14.6824 3.7194 14.0417 3.81341 11.9399C3.89918 9.98639 4.22731 8.93149 4.5008 8.22823C4.8213 7.36075 5.32921 6.57172 6.00134 5.93072C6.64966 5.26653 7.43106 4.75862 8.29854 4.43843C9.0018 4.16494 10.0646 3.83681 12.0102 3.75073C14.12 3.65703 14.753 3.63352 20.0898 3.63352C25.4348 3.63352 26.0675 3.65703 28.1697 3.75073C30.1232 3.83681 31.1781 4.16494 31.8813 4.43843C32.7485 4.75862 33.5378 5.26653 34.1785 5.93072C34.8427 6.57935 35.3506 7.36075 35.6711 8.22823C35.9446 8.93149 36.2727 9.99402 36.3588 11.9399C36.4525 14.0497 36.476 14.6824 36.476 20.0195C36.476 25.3565 36.4525 25.9816 36.3588 28.0914Z" fill="#FCBD63"/>
<path d="M20.0743 9.72852C14.4015 9.72852 9.79883 14.3309 9.79883 20.004C9.79883 25.6771 14.4015 30.2794 20.0743 30.2794C25.7474 30.2794 30.3497 25.6771 30.3497 20.004C30.3497 14.3309 25.7474 9.72852 20.0743 9.72852ZM20.0743 26.6694C16.394 26.6694 13.4088 23.6845 13.4088 20.004C13.4088 16.3234 16.394 13.3385 20.0743 13.3385C23.7548 13.3385 26.7397 16.3234 26.7397 20.004C26.7397 23.6845 23.7548 26.6694 20.0743 26.6694V26.6694Z" fill="#FCBD63"/>
<path d="M33.1552 9.32267C33.1552 10.6474 32.0811 11.7215 30.756 11.7215C29.4313 11.7215 28.3572 10.6474 28.3572 9.32267C28.3572 7.99765 29.4313 6.92383 30.756 6.92383C32.0811 6.92383 33.1552 7.99765 33.1552 9.32267V9.32267Z" fill="#FCBD63"/>
</g>
<defs>
<clipPath id="clip0">
<rect width="40" height="40" fill="white"/>
</clipPath>
</defs>
</svg>
