<svg width="36" height="35" viewBox="0 0 36 35" fill="none" xmlns="http://www.w3.org/2000/svg">
<g clip-path="url(#clip0)">
<path d="M31.8362 26.0223C31.2303 25.5716 30.3739 25.6974 29.9232 26.3032C29.6754 26.6363 29.4101 26.9632 29.1349 27.2745C28.6348 27.8402 28.6879 28.7043 29.2536 29.2044C29.5138 29.4344 29.8368 29.5473 30.1586 29.5473C30.5368 29.5473 30.9133 29.3912 31.1834 29.0856C31.5095 28.7169 31.8236 28.3298 32.1171 27.9352C32.5678 27.3294 32.4421 26.4729 31.8362 26.0223Z" fill="#757575"/>
<path d="M34.1228 19.6116C33.3854 19.4511 32.6567 19.919 32.4961 20.6567C32.4077 21.0626 32.3009 21.4692 32.1785 21.8654C31.9556 22.5868 32.3597 23.3523 33.0811 23.5753C33.2156 23.6167 33.3515 23.6365 33.4852 23.6365C34.069 23.6365 34.6095 23.2596 34.791 22.6725C34.9363 22.2023 35.063 21.7198 35.1679 21.2383C35.3285 20.5006 34.8606 19.7723 34.1228 19.6116Z" fill="#757575"/>
<path d="M25.2556 30.4022C24.8926 30.6048 24.5167 30.7942 24.1386 30.965C23.4504 31.2758 23.1445 32.0855 23.4552 32.7737C23.6836 33.2793 24.1811 33.5785 24.702 33.5785C24.8902 33.5785 25.0814 33.5395 25.264 33.457C25.7126 33.2544 26.1582 33.0299 26.5886 32.7896C27.2479 32.4215 27.4839 31.5886 27.1158 30.9294C26.7478 30.2702 25.9149 30.0341 25.2556 30.4022Z" fill="#757575"/>
<path d="M16.6328 6.5625V16.9337L11.6194 21.947C11.0855 22.481 11.0855 23.3466 11.6194 23.8805C11.8864 24.1475 12.2362 24.281 12.5862 24.281C12.9361 24.281 13.286 24.1475 13.553 23.8805L18.9668 18.4667C19.2232 18.2104 19.3672 17.8626 19.3672 17.5V6.5625C19.3672 5.8074 18.7551 5.19531 18 5.19531C17.2449 5.19531 16.6328 5.8074 16.6328 6.5625Z" fill="#757575"/>
<path d="M34.1328 2.93945C33.3777 2.93945 32.7656 3.55154 32.7656 4.30664V8.10305C29.5834 3.11227 24.0259 0 18 0C13.3256 0 8.93097 1.82034 5.62559 5.12559C2.32034 8.43097 0.5 12.8256 0.5 17.5C0.5 22.1744 2.32034 26.569 5.62559 29.8744C8.93097 33.1797 13.3256 35 18 35C18.0116 35 18.0227 34.9986 18.0342 34.9983C18.0457 34.9986 18.0568 35 18.0684 35C18.5611 35 19.0587 34.9792 19.5475 34.9383C20.2999 34.8753 20.8588 34.2143 20.7958 33.4618C20.7327 32.7094 20.0726 32.1502 19.3193 32.2135C18.9061 32.2481 18.4853 32.2656 18.0684 32.2656C18.0568 32.2656 18.0457 32.2671 18.0342 32.2673C18.0227 32.2671 18.0116 32.2656 18 32.2656C9.85819 32.2656 3.23438 25.6418 3.23438 17.5C3.23438 9.35819 9.85819 2.73438 18 2.73438C23.2471 2.73438 28.0732 5.53116 30.7105 9.98047H26.9512C26.1961 9.98047 25.584 10.5926 25.584 11.3477C25.584 12.1028 26.1961 12.7148 26.9512 12.7148H31.125C31.9576 12.7148 32.7366 12.4808 33.3998 12.0755C33.4425 12.0511 33.4835 12.025 33.5226 11.9967C34.7124 11.2139 35.5 9.86747 35.5 8.33984V4.30664C35.5 3.55154 34.8879 2.93945 34.1328 2.93945Z" fill="#757575"/>
</g>
<defs>
<clipPath id="clip0">
<rect width="35" height="35" fill="white" transform="translate(0.5)"/>
</clipPath>
</defs>
</svg>
