<svg width="36" height="35" viewBox="0 0 36 35" fill="none" xmlns="http://www.w3.org/2000/svg">
<g clip-path="url(#clip0)">
<path d="M28.3834 4.30428C22.6446 -1.43445 13.3559 -1.43507 7.61654 4.30428C1.87794 10.0428 1.87705 19.3318 7.61654 25.0711L17.2239 34.6785C17.6526 35.1071 18.3475 35.1071 18.7761 34.6785L28.3834 25.0711C34.122 19.3326 34.1229 10.0437 28.3834 4.30428V4.30428ZM26.8312 23.519L17.9999 32.3503L9.1687 23.519C4.29916 18.6495 4.29916 10.726 9.1687 5.85651C14.0383 0.987042 21.9615 0.986905 26.8312 5.85651C31.7007 10.726 31.7007 18.6494 26.8312 23.519Z" fill="#757575"/>
<path d="M18 8.12305C14.372 8.12305 11.4355 11.0589 11.4355 14.6874C11.4355 18.3154 14.3715 21.2518 18 21.2518C21.6281 21.2518 24.5644 18.3158 24.5644 14.6874C24.5644 11.0595 21.6285 8.12305 18 8.12305V8.12305ZM21.0896 17.777C21.0475 17.777 20.013 19.0567 18 19.0567C15.5852 19.0567 13.6307 17.1026 13.6307 14.6874C13.6307 12.2727 15.5849 10.3182 18 10.3182C21.9227 10.3182 23.8082 15.0584 21.0896 17.777V17.777Z" fill="#757575"/>
</g>
<defs>
<clipPath id="clip0">
<rect width="35" height="35" fill="white" transform="translate(0.5)"/>
</clipPath>
</defs>
</svg>
