<svg width="35" height="35" viewBox="0 0 35 35" fill="none" xmlns="http://www.w3.org/2000/svg">
<g clip-path="url(#clip0)">
<path d="M34.0475 25.6865L29.1632 20.8021C27.4187 19.0577 24.4532 19.7555 23.7555 22.0232C23.2322 23.5932 21.4877 24.4655 19.9178 24.1165C16.4289 23.2443 11.719 18.7088 10.8468 15.0456C10.3235 13.4755 11.3701 11.7311 12.9401 11.2078C15.2079 10.5101 15.9056 7.54458 14.1612 5.80017L9.27686 0.915817C7.88133 -0.305272 5.78803 -0.305272 4.56694 0.915817L1.25256 4.2302C-2.06183 7.71903 1.60144 16.9644 9.80018 25.1631C17.9989 33.3619 27.2443 37.1997 30.7331 33.7108L34.0475 30.3964C35.2687 29.0009 35.2687 26.9076 34.0475 25.6865Z" fill="#757575"/>
</g>
<defs>
<clipPath id="clip0">
<rect width="35" height="35" fill="white"/>
</clipPath>
</defs>
</svg>
