<svg width="36" height="35" viewBox="0 0 36 35" fill="none" xmlns="http://www.w3.org/2000/svg">
<g clip-path="url(#clip0)">
<path d="M35.4658 10.2901C35.3838 8.43041 35.0831 7.15189 34.6523 6.04404C34.2078 4.86808 33.5241 3.81525 32.6283 2.94003C31.7531 2.05118 30.6933 1.36051 29.531 0.923032C28.4167 0.49223 27.1449 0.191497 25.2852 0.109503C23.4116 0.0205652 22.8168 0 18.0649 0C13.313 0 12.7182 0.0205652 10.8516 0.102559C8.99193 0.184553 7.71342 0.485553 6.60583 0.916088C5.42961 1.36051 4.37677 2.04424 3.50155 2.94003C2.6127 3.81525 1.9223 4.87503 1.48455 6.03737C1.05375 7.15189 0.75302 8.42347 0.671027 10.2832C0.582089 12.1567 0.561523 12.7515 0.561523 17.5034C0.561523 22.2553 0.582089 22.8501 0.664082 24.7167C0.746076 26.5764 1.04708 27.8549 1.47788 28.9628C1.9223 30.1388 2.6127 31.1916 3.50155 32.0668C4.37677 32.9557 5.43655 33.6463 6.59889 34.0838C7.71342 34.5146 8.98499 34.8153 10.8449 34.8973C12.7113 34.9796 13.3064 34.9999 18.0583 34.9999C22.8102 34.9999 23.405 34.9796 25.2716 34.8973C27.1313 34.8153 28.4098 34.5146 29.5174 34.0838C31.8695 33.1744 33.7292 31.3147 34.6386 28.9628C35.0692 27.8483 35.3702 26.5764 35.4522 24.7167C35.5342 22.8501 35.5547 22.2553 35.5547 17.5034C35.5547 12.7515 35.5478 12.1567 35.4658 10.2901ZM32.314 24.58C32.2387 26.2893 31.9515 27.2123 31.7122 27.8277C31.1241 29.3525 29.914 30.5626 28.3892 31.1507C27.7739 31.39 26.8442 31.6771 25.1415 31.7522C23.2954 31.8344 22.7418 31.8547 18.0719 31.8547C13.402 31.8547 12.8414 31.8344 11.002 31.7522C9.29266 31.6771 8.36963 31.39 7.75428 31.1507C6.9955 30.8703 6.30483 30.4259 5.74423 29.8447C5.16306 29.2771 4.71864 28.5934 4.4382 27.8346C4.1989 27.2193 3.91179 26.2893 3.83674 24.5869C3.75448 22.7409 3.73418 22.1869 3.73418 17.517C3.73418 12.8471 3.75448 12.2865 3.83674 10.4474C3.91179 8.73809 4.1989 7.81506 4.4382 7.1997C4.71864 6.44066 5.16306 5.75025 5.75117 5.18938C6.31845 4.60821 7.00218 4.16379 7.76122 3.88362C8.37658 3.64432 9.30655 3.35721 11.0089 3.28189C12.855 3.1999 13.4089 3.17933 18.0786 3.17933C22.7554 3.17933 23.3091 3.1999 25.1485 3.28189C26.8578 3.35721 27.7808 3.64432 28.3962 3.88362C29.1549 4.16379 29.8456 4.60821 30.4062 5.18938C30.9874 5.75693 31.4318 6.44066 31.7122 7.1997C31.9515 7.81506 32.2387 8.74476 32.314 10.4474C32.396 12.2935 32.4165 12.8471 32.4165 17.517C32.4165 22.1869 32.396 22.7339 32.314 24.58Z" fill="#757575"/>
<path d="M18.065 8.51172C13.1013 8.51172 9.07397 12.5388 9.07397 17.5027C9.07397 22.4667 13.1013 26.4937 18.065 26.4937C23.029 26.4937 27.056 22.4667 27.056 17.5027C27.056 12.5388 23.029 8.51172 18.065 8.51172ZM18.065 23.335C14.8448 23.335 12.2327 20.7232 12.2327 17.5027C12.2327 14.2823 14.8448 11.6705 18.065 11.6705C21.2854 11.6705 23.8972 14.2823 23.8972 17.5027C23.8972 20.7232 21.2854 23.335 18.065 23.335V23.335Z" fill="#757575"/>
<path d="M29.5107 8.15758C29.5107 9.31672 28.5709 10.2566 27.4115 10.2566C26.2524 10.2566 25.3125 9.31672 25.3125 8.15758C25.3125 6.99819 26.2524 6.05859 27.4115 6.05859C28.5709 6.05859 29.5107 6.99819 29.5107 8.15758V8.15758Z" fill="#757575"/>
</g>
<defs>
<clipPath id="clip0">
<rect width="35" height="35" fill="white" transform="translate(0.5)"/>
</clipPath>
</defs>
</svg>
